<svg id="Capa_1" enable-background="new 0 0 512 512" height="512" viewBox="0 0 512 512" width="512" xmlns="http://www.w3.org/2000/svg"><g><g><path d="m269.817 183.042h-28.733c-10.247 0-18.554-8.307-18.554-18.554v-82.566c0-10.247 8.307-18.554 18.554-18.554h28.733c10.247 0 18.554 8.307 18.554 18.554v82.566c0 10.248-8.306 18.554-18.554 18.554z" fill="#b2e7f1"/><path d="m446.602 493.107h-381.204c-30.474 0-55.178-24.704-55.178-55.178v-223.146c0-30.474 24.704-55.178 55.178-55.178h381.203c30.474 0 55.178 24.704 55.178 55.178v223.146c.001 30.474-24.703 55.178-55.177 55.178z" fill="#ffe266"/><path d="m446.602 159.605h-56.925c25.635 0 46.416 20.781 46.416 46.416v179.562c0 25.635-20.781 46.416-46.416 46.416h-333.041c-25.635 0-46.416-20.78-46.416-46.416v52.346c0 30.474 24.704 55.177 55.178 55.177h381.203c30.474 0 55.178-24.704 55.178-55.177v-223.146c.001-30.474-24.703-55.178-55.177-55.178z" fill="#efaa66"/><path d="m201.891 386.006h-119.889c-12.801 0-23.179-10.378-23.179-23.179v-132.677c0-12.801 10.377-23.179 23.179-23.179h119.889c12.801 0 23.179 10.378 23.179 23.179v132.678c0 12.8-10.378 23.178-23.179 23.178z" fill="#fff"/><path d="m184.594 386.935v-11.53c0-23.554-19.094-42.648-42.648-42.648-23.554 0-42.648 19.094-42.648 42.648v11.53z" fill="#8bb6ef"/><path d="m154.227 348.921h-24.07c-29.91 0-54.158-24.247-54.158-54.158 0-29.911 24.247-54.158 54.158-54.158h24.07c29.91 0 54.158 24.247 54.158 54.158 0 29.91-24.248 54.158-54.158 54.158z" fill="#ffc7b6"/><path d="m203.411 317.985c6.467-4.004 12.633-11.954 12.716-20.704v-6.354c0-35.191-28.528-63.719-63.719-63.719h-20.922c-35.191 0-63.719 28.528-63.719 63.719v6.354c.449 11.157 7.122 17.111 11.844 21.012 28.083-12.788 63.007-33.533 89.003-57.691 9.19 22.32 19.693 39.651 34.797 57.383z" fill="#b07676"/></g><g fill="#440a29"><path d="m446.602 149.385h-148.01v-67.463c0-15.866-12.908-28.774-28.774-28.774h-28.733c-15.866 0-28.774 12.908-28.774 28.774v67.463h-146.913c-36.061 0-65.398 29.337-65.398 65.398v223.146c0 36.061 29.337 65.398 65.398 65.398h381.203c36.061 0 65.398-29.338 65.398-65.398v-223.146c.001-36.061-29.337-65.398-65.397-65.398zm-213.851-67.463c0-4.595 3.739-8.334 8.334-8.334h28.733c4.595 0 8.334 3.739 8.334 8.334v67.463h-45.4v-67.463zm258.809 356.007c0 24.79-20.169 44.958-44.958 44.958h-381.204c-24.79 0-44.958-20.169-44.958-44.958v-223.146c0-24.79 20.168-44.958 44.958-44.958h381.203c24.79 0 44.958 20.169 44.958 44.958v223.146z"/><path d="m115.42 324.94c3.339 0 6.046-2.707 6.046-6.046s-2.707-6.045-6.046-6.045-6.046 2.707-6.046 6.045c0 3.339 2.707 6.046 6.046 6.046z"/><path d="m168.964 324.94c3.339 0 6.046-2.707 6.046-6.046s-2.707-6.045-6.046-6.045-6.046 2.707-6.046 6.045c-.001 3.339 2.706 6.046 6.046 6.046z"/><path d="m201.891 392.138c16.162 0 29.31-13.148 29.31-29.311v-132.677c0-16.163-13.148-29.311-29.31-29.311h-119.889c-16.162 0-29.31 13.148-29.31 29.311v132.677c0 16.163 13.148 29.311 29.31 29.311zm8.104-95.208c-.747 6.229-2.915 9.999-5.608 12.637-12.75-15.735-21.9-31.375-30.104-51.3-.765-1.859-2.393-3.225-4.357-3.656-1.964-.428-4.014.13-5.487 1.498-21.381 19.871-52.439 40.218-83.71 54.91-3.014-3.103-5.757-7.375-6.831-14.198v-5.895c0-31.754 25.834-57.588 57.588-57.588h20.922c31.753 0 57.587 25.834 57.587 57.588zm-43.647-26.076c8.164 18.164 17.464 33.091 30.005 48.257-8.094 15.129-24.047 25.448-42.37 25.448h-24.071c-17.599 0-33.005-9.523-41.366-23.682 28.484-13.667 56.651-31.787 77.802-50.023zm-54.077 83.325c5.583 1.712 11.504 2.644 17.64 2.644h24.071c6.136 0 12.058-.927 17.64-2.64 4.297 5.985 6.841 13.307 6.841 21.222v4.469h-73.033v-4.469c0-7.915 2.544-15.241 6.841-21.226zm89.62 25.695h-11.165v-4.469c0-9.602-2.798-18.558-7.612-26.112 11.158-6.191 20.155-15.818 25.556-27.445 4.609-3.251 7.994-7.151 10.267-11.87v52.85c.001 9.399-7.647 17.046-17.046 17.046zm-119.889-166.771h119.89c9.399 0 17.046 7.647 17.046 17.047v39.509c-9.019-28.147-35.428-48.584-66.53-48.584h-20.922c-31.102 0-57.511 20.437-66.53 48.584v-39.509c-.001-9.4 7.646-17.047 17.046-17.047zm-17.047 149.724v-53.413c3.031 6.586 7.321 10.773 10.749 13.605.034.028.074.047.108.075 5.457 11.071 14.205 20.24 24.968 26.207-4.811 7.553-7.614 16.503-7.614 26.103v4.469h-11.164c-9.4.001-17.047-7.646-17.047-17.046z"/><path d="m429.664 421.779c-19.591-.157-39.788-.26-61.748-.318-.009 0-.018 0-.028 0-5.631 0-10.204 4.558-10.219 10.193-.015 5.645 4.549 10.232 10.193 10.247 21.922.058 42.084.162 61.638.318h.084c5.606 0 10.173-4.522 10.218-10.138.045-5.644-4.494-10.256-10.138-10.302z"/><path d="m323.242 421.411c-19.016-.012-27.227.007-43.482.044l-7.712.018c-5.644.013-10.21 4.599-10.197 10.243.013 5.637 4.586 10.197 10.22 10.197h.023l7.714-.018c16.233-.037 24.441-.051 43.42-.044h.007c5.641 0 10.216-4.571 10.22-10.213.004-5.645-4.569-10.223-10.213-10.227z"/><path d="m227.438 421.543c-.008 0-.016 0-.024 0-21.999.051-44.736.131-67.58.237-5.645.026-10.199 4.623-10.173 10.268.026 5.628 4.597 10.172 10.219 10.172h.048c22.829-.107 45.549-.186 67.532-.237 5.644-.013 10.21-4.599 10.197-10.244-.012-5.636-4.585-10.196-10.219-10.196z"/><path d="m109.864 421.789c-9.623-.43-18.227-.432-27.902 0-5.639.251-10.006 5.027-9.754 10.666s5.047 10.009 10.666 9.754c9.163-.409 16.961-.409 26.073 0 .156.007.311.01.467.01 5.433 0 9.956-4.28 10.202-9.762.252-5.638-4.114-10.414-9.752-10.668z"/><path d="m436.093 235.785h-157.512c-3.386 0-6.132 2.746-6.132 6.132s2.746 6.132 6.132 6.132h157.512c3.386 0 6.132-2.746 6.132-6.132s-2.746-6.132-6.132-6.132z"/><path d="m436.093 329.428h-157.512c-3.386 0-6.132 2.746-6.132 6.132s2.746 6.132 6.132 6.132h157.512c3.386 0 6.132-2.746 6.132-6.132s-2.746-6.132-6.132-6.132z"/><path d="m278.581 294.871h89.308c3.386 0 6.132-2.746 6.132-6.132s-2.746-6.132-6.132-6.132h-89.308c-3.386 0-6.132 2.746-6.132 6.132s2.746 6.132 6.132 6.132z"/></g><g><ellipse cx="357.337" cy="30.527" fill="#ffe266" rx="18.955" ry="18.955" transform="matrix(.23 -.973 .973 .23 245.527 371.291)"/><ellipse cx="117.365" cy="97.976" fill="#ffe266" rx="8.027" ry="8.027" transform="matrix(.16 -.987 .987 .16 1.854 198.132)"/><g fill="#fef2a8"><path d="m466.87 64.542 6.439 18.106c.276.775.821 1.389 1.51 1.7l16.087 7.248c2.272 1.024 2.272 4.645 0 5.669l-16.087 7.248c-.689.31-1.235.925-1.51 1.7l-6.439 18.106c-.91 2.558-4.127 2.558-5.037 0l-6.439-18.106c-.276-.775-.821-1.389-1.51-1.7l-16.087-7.248c-2.273-1.024-2.273-4.645 0-5.669l16.087-7.248c.689-.31 1.235-.925 1.51-1.7l6.439-18.106c.91-2.558 4.127-2.558 5.037 0z"/><path d="m53.607 11.259 8.848 24.409c.379 1.045 1.129 1.873 2.075 2.292l22.105 9.771c3.123 1.38 3.123 6.262 0 7.642l-22.105 9.77c-.946.418-1.696 1.247-2.075 2.292l-8.848 24.409c-1.25 3.448-5.671 3.448-6.921 0l-8.848-24.409c-.379-1.045-1.129-1.873-2.075-2.292l-22.104-9.771c-3.123-1.38-3.123-6.262 0-7.642l22.104-9.771c.946-.418 1.696-1.247 2.075-2.292l8.848-24.409c1.25-3.447 5.671-3.447 6.921.001z"/></g></g></g></svg>